<?xml version="1.0" encoding="utf-8"?>
<!-- Generator: Adobe Illustrator 24.2.0, SVG Export Plug-In . SVG Version: 6.00 Build 0)  -->
<svg version="1.1" id="Layer_1" xmlns="http://www.w3.org/2000/svg" xmlns:xlink="http://www.w3.org/1999/xlink" x="0px" y="0px"
	 viewBox="0 0 735 852" style="enable-background:new 0 0 735 852;" xml:space="preserve">
<style type="text/css">
	.st0{fill:#1A5B72;}
	.st1{fill:#0C2E3D;stroke:#0C2E3D;stroke-width:0.5;stroke-miterlimit:10;}
	.st2{fill:#FFFFFF;}
	.st3{fill:#FFFFFF;stroke:#0C2E3D;stroke-width:0.5;stroke-miterlimit:10;}
	.st4{fill:#8FDAF5;}
</style>
<g id="background">
	<path class="st0" d="M18.2,627.4V224.1l51.6-29.8L367.5,22.5l0,0l296.7,171.3l52.6,30.3v403.3L367.5,829L18.2,627.4z"/>
	<path class="st1" d="M734.9,637.4V213.1l-29.3-16.9L427.8,35.8L367.5,1l-60.3,34.8L29.4,196.2L0.1,213.1v424.2l29.3,16.9
		l281.3,162.4l56.9,32.8l56.9-32.8l281.3-162.4L734.9,637.4z M29.4,621.5V231l50-28.9L367.5,35.8l0,0l287.2,165.8l50.9,29.4v390.5
		L367.5,816.7L29.4,621.5z"/>
</g>
<g id="text">
	<g>
		<g>
			<path class="st2" d="M126.1,575.5h25c20.3,0,32.5,13.2,32.5,31.1c0,20.6-14.1,33.1-32.6,33.1h-24.9V575.5z M131.7,634.6h17.6
				c19.4,0,28.3-12.6,28.3-27.8c0-16.5-11.4-26.2-27.4-26.2h-18.6L131.7,634.6L131.7,634.6z"/>
			<path class="st2" d="M231.4,575.5v64.2h-5.6v-64.2H231.4z"/>
			<path class="st2" d="M279,621.3c2.6,8.6,8.7,14.7,22.4,14.7c14,0,19.9-5.9,19.9-12.8c0-7.3-3.8-11.9-22-15
				c-17.7-3-22.7-8.4-22.7-17.2c0-10.5,9.9-16.9,23.2-16.9c20.3,0,24.6,10.7,25.4,16.7h-5.8c-1.5-5-4.6-11.6-19.7-11.6
				c-10.2,0-17.3,3.6-17.3,11.2c0,6.1,2.6,10.2,18.5,12.8c22.5,3.7,26.2,10.8,26.2,19.5c0,9.7-7.8,18.4-26,18.4
				c-16.8,0-25.9-7.8-28-19.7h5.9V621.3z"/>
			<path class="st2" d="M386.3,580.7h-25.5v-5.2h56.7v5.2H392v59h-5.7V580.7z"/>
			<path class="st2" d="M461,575.5v64.2h-5.6v-64.2H461z"/>
			<path class="st2" d="M507.3,575.5h5.5v59H553l-1,5.2h-44.7V575.5z"/>
			<path class="st2" d="M591.3,575.5h5.5v59H637l-1,5.2h-44.7V575.5z"/>
		</g>
	</g>
</g>
<g id="design">
	<path class="st3" d="M367.5,124.7c-4.6,22.8-9.9,45.4-16.4,67.8c-13.5,47-37.2,90-58,134c-19.9,42.1-37.8,91.2-22.9,137.7
		c11.5,36,43.3,64.5,80.6,71c5.6,1,11.1,1.4,16.6,1.3c5.5,0.1,11-0.4,16.6-1.3c37.3-6.5,69.1-35.1,80.6-71
		c14.9-46.5-3-95.7-22.9-137.7c-20.8-43.9-44.5-87-58-134C377.4,170.2,372.1,147.5,367.5,124.7z"/>
</g>
<path class="st4" d="M436.4,375.8c4.2,7,19.8,34.8,12.6,70.3c-1.4,7-8.1,40-37.9,58.4c-10.3,6.4-20.2,9-26.9,10.3
	c10.9-7.5,30.7-23.4,43.4-50.6c1.8-3.8,10.1-21.9,11.8-47.4C440.8,399.8,438.6,385.6,436.4,375.8z"/>
</svg>
