<?xml version="1.0" encoding="UTF-8" standalone="no"?>
<!-- Created with Inkscape (http://www.inkscape.org/) -->
<svg
   xmlns:dc="http://purl.org/dc/elements/1.1/"
   xmlns:cc="http://web.resource.org/cc/"
   xmlns:rdf="http://www.w3.org/1999/02/22-rdf-syntax-ns#"
   xmlns:svg="http://www.w3.org/2000/svg"
   xmlns="http://www.w3.org/2000/svg"
   xmlns:sodipodi="http://sodipodi.sourceforge.net/DTD/sodipodi-0.dtd"
   xmlns:inkscape="http://www.inkscape.org/namespaces/inkscape"
   width="744"
   height="850"
   id="svg2"
   sodipodi:version="0.32"
   inkscape:version="0.45.1"
   sodipodi:docbase="C:\Documents and Settings\Carson\Desktop\svg-clipart"
   sodipodi:docname="test2.svg"
   inkscape:output_extension="org.inkscape.output.svg.inkscape"
   inkscape:export-filename="C:\Documents and Settings\Carson\Desktop\svg-clipart\test2.png"
   inkscape:export-xdpi="90"
   inkscape:export-ydpi="90">
  <defs
     id="defs4">
    <filter
       inkscape:collect="always"
       x="-0.10681856"
       width="1.2136371"
       y="-0.18162331"
       height="1.3632466"
       id="filter3641">
      <feGaussianBlur
         inkscape:collect="always"
         stdDeviation="6.4662762"
         id="feGaussianBlur3643" />
    </filter>
    <filter
       inkscape:collect="always"
       x="-0.1079728"
       width="1.2159456"
       y="-0.22858333"
       height="1.4571667"
       id="filter10486">
      <feGaussianBlur
         inkscape:collect="always"
         stdDeviation="7.8575521"
         id="feGaussianBlur10488" />
    </filter>
    <filter
       inkscape:collect="always"
       x="-0.10344059"
       width="1.2068812"
       y="-0.18752525"
       height="1.3750505"
       id="filter11505">
      <feGaussianBlur
         inkscape:collect="always"
         stdDeviation="6.4461806"
         id="feGaussianBlur11507" />
    </filter>
    <filter
       inkscape:collect="always"
       x="-0.10342085"
       width="1.2068417"
       y="-0.18759017"
       height="1.3751803"
       id="filter12524">
      <feGaussianBlur
         inkscape:collect="always"
         stdDeviation="6.4484128"
         id="feGaussianBlur12526" />
    </filter>
    <filter
       inkscape:collect="always"
       x="-0.14587003"
       width="1.2917401"
       y="-0.143853"
       height="1.287706"
       id="filter13574">
      <feGaussianBlur
         inkscape:collect="always"
         stdDeviation="14.131862"
         id="feGaussianBlur13576" />
    </filter>
    <filter
       inkscape:collect="always"
       x="-0.14165815"
       width="1.2833163"
       y="-0.13970741"
       height="1.2794148"
       id="filter14635">
      <feGaussianBlur
         inkscape:collect="always"
         stdDeviation="16.599332"
         id="feGaussianBlur14637" />
    </filter>
    <filter
       inkscape:collect="always"
       x="-0.093078763"
       width="1.1861575"
       y="-0.16883116"
       height="1.3376623"
       id="filter15647">
      <feGaussianBlur
         inkscape:collect="always"
         stdDeviation="5.8035715"
         id="feGaussianBlur15649" />
    </filter>
  </defs>
  <sodipodi:namedview
     id="base"
     pagecolor="#ffffff"
     bordercolor="#666666"
     borderopacity="1.0"
     gridtolerance="10000"
     guidetolerance="10"
     objecttolerance="10"
     inkscape:pageopacity="0.0"
     inkscape:pageshadow="2"
     inkscape:zoom="1.029877"
     inkscape:cx="183.87134"
     inkscape:cy="779.07146"
     inkscape:document-units="px"
     inkscape:current-layer="layer1"
     inkscape:window-width="1400"
     inkscape:window-height="994"
     inkscape:window-x="-4"
     inkscape:window-y="-4" />
  <metadata
     id="metadata7">
    <rdf:RDF>
      <cc:Work
         rdf:about="">
        <dc:format>image/svg+xml</dc:format>
        <dc:type
           rdf:resource="http://purl.org/dc/dcmitype/StillImage" />
      </cc:Work>
    </rdf:RDF>
  </metadata>
  <g
     inkscape:label="Layer 1"
     inkscape:groupmode="layer"
     id="layer1">
    <rect
       style="opacity:1;color:#000000;fill:#000000;fill-opacity:1;fill-rule:nonzero;stroke:#000000;stroke-width:2.5;stroke-linecap:square;stroke-linejoin:miter;marker:none;marker-start:none;marker-mid:none;marker-end:none;stroke-miterlimit:4;stroke-dasharray:none;stroke-dashoffset:0;stroke-opacity:1;visibility:visible;display:inline;overflow:visible;filter:url(#filter15647);enable-background:accumulate"
       id="rect14640"
       width="147.14285"
       height="80.000008"
       x="31.628231"
       y="449.69495"
       rx="18.571428"
       ry="17.142859" />
    <path
       sodipodi:type="star"
       style="opacity:1;color:#000000;fill:#000000;fill-opacity:1;fill-rule:nonzero;stroke:#000000;stroke-width:6.37171316;stroke-linecap:square;stroke-linejoin:miter;marker:none;marker-start:none;marker-mid:none;marker-end:none;stroke-miterlimit:4;stroke-dasharray:none;stroke-dashoffset:0;stroke-opacity:1;visibility:visible;display:inline;overflow:visible;filter:url(#filter14635);enable-background:accumulate"
       id="path13588"
       sodipodi:sides="50"
       sodipodi:cx="-603.23578"
       sodipodi:cy="534.51593"
       sodipodi:r1="138.32973"
       sodipodi:r2="124.08177"
       sodipodi:arg1="0.22082877"
       sodipodi:arg2="0.28366062"
       inkscape:flatsided="false"
       inkscape:rounded="0"
       inkscape:randomized="0"
       d="M -468.26522,564.81544 L -484.11264,569.24292 L -473.12704,581.49282 L -489.40441,583.89918 L -480.04075,597.42934 L -496.49137,597.77663 L -488.89732,612.37368 L -505.26175,610.65643 L -499.55708,626.09016 L -515.57723,622.33544 L -511.85191,638.36246 L -527.27515,632.62948 L -525.58792,648.99703 L -540.17101,641.37622 L -540.54848,657.82617 L -554.06144,648.4377 L -556.49766,664.71064 L -568.72738,653.70258 L -573.18393,669.54185 L -583.93754,657.0878 L -590.34413,672.24363 L -599.45204,658.54 L -607.70764,672.77336 L -615.02621,658.03626 L -625.00063,671.12268 L -630.41444,655.58453 L -641.95038,667.31764 L -645.37405,651.22348 L -658.28957,661.41823 L -659.66911,645.02188 L -673.76053,653.5175 L -673.07419,637.07753 L -688.11927,643.74004 L -685.37787,627.51573 L -701.13935,632.24005 L -696.38612,616.48727 L -712.61543,619.1989 L -705.92533,604.16607 L -722.36653,604.82224 L -713.84507,590.74644 L -730.23887,589.33681 L -720.02044,576.44002 L -736.10829,572.98683 L -724.35404,561.47244 L -739.88223,556.03013 L -726.77753,546.07974 L -741.50118,538.73415 L -727.2527,530.50467 L -740.93959,521.37163 L -725.77204,514.99286 L -738.20634,504.21642 L -722.35892,499.78894 L -733.34452,487.53904 L -717.06715,485.13268 L -726.43081,471.60252 L -709.98019,471.25523 L -717.57424,456.65818 L -701.20981,458.37544 L -706.91448,442.9417 L -690.89432,446.69642 L -694.61965,430.6694 L -679.19641,436.40238 L -680.88364,420.03483 L -666.30055,427.65564 L -665.92308,411.20569 L -652.41012,420.59416 L -649.9739,404.32122 L -637.74418,415.32928 L -633.28763,399.49001 L -622.53402,411.94406 L -616.12743,396.78823 L -607.01952,410.49186 L -598.76391,396.2585 L -591.44534,410.9956 L -581.47093,397.90918 L -576.05711,413.44733 L -564.52118,401.71422 L -561.09751,417.80838 L -548.18199,407.61363 L -546.80244,424.00998 L -532.71103,415.51436 L -533.39737,431.95433 L -518.35229,425.29182 L -521.09369,441.51613 L -505.33221,436.79181 L -510.08544,452.54459 L -493.85613,449.83296 L -500.54622,464.86579 L -484.10503,464.20962 L -492.62648,478.28542 L -476.23269,479.69505 L -486.45112,492.59184 L -470.36327,496.04503 L -482.11752,507.55942 L -466.58933,513.00173 L -479.69403,522.95212 L -464.97038,530.29772 L -479.21886,538.52719 L -465.53196,547.66023 L -480.69952,554.039 L -468.26522,564.81544 z "
       transform="matrix(0.5321035,0,0,0.2893154,790.14597,606.14683)" />
    <path
       sodipodi:type="star"
       style="opacity:1;color:#000000;fill:#000000;fill-opacity:1;fill-rule:nonzero;stroke:#000000;stroke-width:5.26808691;stroke-linecap:square;stroke-linejoin:miter;marker:none;marker-start:none;marker-mid:none;marker-end:none;stroke-miterlimit:4;stroke-dasharray:none;stroke-dashoffset:0;stroke-opacity:1;visibility:visible;display:inline;overflow:visible;filter:url(#filter13574);enable-background:accumulate"
       id="path13578"
       sodipodi:sides="4"
       sodipodi:cx="-568.8045"
       sodipodi:cy="512.47998"
       sodipodi:r1="114.34498"
       sodipodi:r2="80.854111"
       sodipodi:arg1="1.5467046"
       sodipodi:arg2="2.3321028"
       inkscape:flatsided="true"
       inkscape:rounded="0.12"
       inkscape:randomized="0"
       d="M -566.05,626.79178 C -585.44936,627.25923 -682.64885,534.63384 -683.1163,515.23448 C -683.58376,495.83513 -590.95836,398.63564 -571.55901,398.16818 C -552.15965,397.70073 -454.96016,490.32612 -454.49271,509.72548 C -454.02525,529.12483 -546.65065,626.32432 -566.05,626.79178 z "
       transform="matrix(0.6435938,0,0,0.3499147,674.28894,428.87409)" />
    <path
       sodipodi:type="star"
       style="opacity:1;color:#000000;fill:#000000;fill-opacity:1;fill-rule:nonzero;stroke:#000000;stroke-width:5.26808691;stroke-linecap:square;stroke-linejoin:miter;marker:none;marker-start:none;marker-mid:none;marker-end:none;stroke-miterlimit:4;stroke-dasharray:none;stroke-dashoffset:0;stroke-opacity:1;visibility:visible;display:inline;overflow:visible;filter:url(#filter13574);enable-background:accumulate"
       id="path12539"
       sodipodi:sides="4"
       sodipodi:cx="-568.8045"
       sodipodi:cy="512.47998"
       sodipodi:r1="114.34498"
       sodipodi:r2="80.854111"
       sodipodi:arg1="1.5467046"
       sodipodi:arg2="2.3321028"
       inkscape:flatsided="true"
       inkscape:rounded="0.12"
       inkscape:randomized="0"
       d="M -566.05,626.79178 C -585.44936,627.25923 -682.64885,534.63384 -683.1163,515.23448 C -683.58376,495.83513 -590.95836,398.63564 -571.55901,398.16818 C -552.15965,397.70073 -454.96016,490.32612 -454.49271,509.72548 C -454.02525,529.12483 -546.65065,626.32432 -566.05,626.79178 z "
       transform="matrix(0.6435938,0,0,0.3499147,984.8316,429.4543)" />
    <rect
       style="opacity:1;color:#000000;fill:#000000;fill-opacity:1;fill-rule:nonzero;stroke:#000000;stroke-width:2.5;stroke-linecap:square;stroke-linejoin:miter;marker:none;marker-start:none;marker-mid:none;marker-end:none;stroke-miterlimit:4;stroke-dasharray:none;stroke-dashoffset:0;stroke-opacity:1;visibility:visible;display:inline;overflow:visible;filter:url(#filter12524);enable-background:accumulate"
       id="rect12535"
       width="147.14285"
       height="80.000008"
       x="546.94904"
       y="448.94067"
       rx="18.571428"
       ry="17.142859" />
    <rect
       style="opacity:1;color:#000000;fill:#000000;fill-opacity:1;fill-rule:nonzero;stroke:#000000;stroke-width:2.5;stroke-linecap:square;stroke-linejoin:miter;marker:none;marker-start:none;marker-mid:none;marker-end:none;stroke-miterlimit:4;stroke-dasharray:none;stroke-dashoffset:0;stroke-opacity:1;visibility:visible;display:inline;overflow:visible;filter:url(#filter12524);enable-background:accumulate"
       id="rect12533"
       width="147.14285"
       height="80.000008"
       x="237.09921"
       y="449.40485"
       rx="18.571428"
       ry="17.142859" />
    <rect
       style="opacity:1;color:#000000;fill:#000000;fill-opacity:1;fill-rule:nonzero;stroke:#000000;stroke-width:2.5;stroke-linecap:square;stroke-linejoin:miter;marker:none;marker-start:none;marker-mid:none;marker-end:none;stroke-miterlimit:4;stroke-dasharray:none;stroke-dashoffset:0;stroke-opacity:1;visibility:visible;display:inline;overflow:visible;filter:url(#filter12524);enable-background:accumulate"
       id="rect12531"
       width="147.14285"
       height="80.000008"
       x="235.66406"
       y="326.59598"
       rx="18.571428"
       ry="17.142859" />
    <rect
       style="opacity:1;color:#000000;fill:#000000;fill-opacity:1;fill-rule:nonzero;stroke:#000000;stroke-width:2.5;stroke-linecap:square;stroke-linejoin:miter;marker:none;marker-start:none;marker-mid:none;marker-end:none;stroke-miterlimit:4;stroke-dasharray:none;stroke-dashoffset:0;stroke-opacity:1;visibility:visible;display:inline;overflow:visible;filter:url(#filter12524);enable-background:accumulate"
       id="rect11509"
       width="147.14285"
       height="80.000008"
       x="545.13843"
       y="326.37927"
       rx="18.571428"
       ry="17.142859" />
    <path
       style="opacity:1;color:#000000;fill:#000000;fill-opacity:1;fill-rule:nonzero;stroke:#000000;stroke-width:2.5;stroke-linecap:square;stroke-linejoin:miter;marker:none;marker-start:none;marker-mid:none;marker-end:none;stroke-miterlimit:4;stroke-dasharray:none;stroke-dashoffset:0;stroke-opacity:1;visibility:visible;display:inline;overflow:visible;filter:url(#filter11505);enable-background:accumulate"
       d="M 561.89536,204.8895 C 552.12555,204.8895 544.17335,211.78124 543.39536,220.60825 C 543.5111,220.6068 543.623,220.60825 543.73911,220.60825 C 557.9334,220.60825 569.45786,231.48379 569.45786,244.8895 C 569.45786,258.29522 557.9334,269.17075 543.73911,269.17075 C 543.623,269.17075 543.5111,269.1722 543.39536,269.17075 C 544.17028,278.00063 552.12333,284.88951 561.89536,284.8895 L 671.89536,284.8895 C 682.18393,284.8895 690.45786,277.26165 690.45786,267.7645 L 690.45786,222.04575 C 690.45786,212.54861 682.18394,204.8895 671.89536,204.8895 L 561.89536,204.8895 z "
       id="path10490" />
    <path
       style="opacity:1;color:#000000;fill:#000000;fill-opacity:1;fill-rule:nonzero;stroke:#000000;stroke-width:2.5;stroke-linecap:square;stroke-linejoin:miter;marker:none;marker-start:none;marker-mid:none;marker-end:none;stroke-miterlimit:4;stroke-dasharray:none;stroke-dashoffset:0;stroke-opacity:1;visibility:visible;display:inline;overflow:visible;filter:url(#filter10486);enable-background:accumulate"
       d="M 256.62089,208.09258 C 246.33232,208.09258 238.05839,215.72044 238.05839,225.21758 L 238.05839,270.93633 C 238.05839,280.43347 246.33231,288.09259 256.62089,288.09258 L 366.62089,288.09258 C 376.38154,288.09258 384.36142,281.18894 385.15214,272.37383 C 399.04042,272.04133 410.21464,261.28896 410.21464,248.09258 C 410.21464,234.89621 399.04043,224.11258 385.15214,223.78008 C 384.36142,214.96497 376.38155,208.09258 366.62089,208.09258 L 256.62089,208.09258 z "
       id="path9459" />
    <path
       sodipodi:type="arc"
       style="opacity:0.63888889;color:#000000;fill:#000000;fill-opacity:1;fill-rule:nonzero;stroke:#000000;stroke-width:2.50692391;stroke-linecap:square;stroke-linejoin:miter;marker:none;marker-start:none;marker-mid:none;marker-end:none;stroke-miterlimit:4;stroke-dasharray:none;stroke-dashoffset:0;stroke-opacity:1;visibility:visible;display:inline;overflow:visible;filter:url(#filter3641);enable-background:accumulate"
       id="path2562"
       sodipodi:cx="325.71429"
       sodipodi:cy="150.93361"
       sodipodi:rx="71.428574"
       sodipodi:ry="41.42857"
       d="M 397.14287 150.93361 A 71.428574 41.42857 0 1 1  254.28572,150.93361 A 71.428574 41.42857 0 1 1  397.14287 150.93361 z"
       transform="matrix(1.030001,0,0,0.9655173,130.58903,-49.791722)" />
    <path
       sodipodi:type="arc"
       style="opacity:1;color:#000000;fill:#ffb13b;fill-opacity:1;fill-rule:nonzero;stroke:#ff9015;stroke-width:2.50692391;stroke-linecap:square;stroke-linejoin:miter;marker:none;marker-start:none;marker-mid:none;marker-end:none;stroke-miterlimit:4;stroke-dasharray:none;stroke-dashoffset:0;stroke-opacity:1;visibility:visible;display:inline;overflow:visible;enable-background:accumulate"
       id="path2162"
       sodipodi:cx="325.71429"
       sodipodi:cy="150.93361"
       sodipodi:rx="71.428574"
       sodipodi:ry="41.42857"
       d="M 397.14287 150.93361 A 71.428574 41.42857 0 1 1  254.28572,150.93361 A 71.428574 41.42857 0 1 1  397.14287 150.93361 z"
       transform="matrix(1.030001,0,0,0.9655173,128.33958,-56.79786)" />
    <rect
       style="opacity:1;color:#000000;fill:#ffb13b;fill-opacity:1;fill-rule:nonzero;stroke:#ff9015;stroke-width:2.5;stroke-linecap:square;stroke-linejoin:miter;marker:none;marker-start:none;marker-mid:none;marker-end:none;stroke-miterlimit:4;stroke-dasharray:none;stroke-dashoffset:0;stroke-opacity:1;visibility:visible;display:inline;overflow:visible;enable-background:accumulate"
       id="rect4103"
       width="147.14285"
       height="80.000008"
       x="233.14742"
       y="323.35504"
       rx="18.571428"
       ry="17.142859" />
    <rect
       style="opacity:1;color:#000000;fill:#ffb13b;fill-opacity:1;fill-rule:nonzero;stroke:#ff9015;stroke-width:2.5;stroke-linecap:square;stroke-linejoin:miter;marker:none;marker-start:none;marker-mid:none;marker-end:none;stroke-miterlimit:4;stroke-dasharray:none;stroke-dashoffset:0;stroke-opacity:1;visibility:visible;display:inline;overflow:visible;enable-background:accumulate"
       id="rect4105"
       width="147.14285"
       height="80.000008"
       x="543.04773"
       y="444.87967"
       rx="18.571428"
       ry="17.142859" />
    <rect
       style="opacity:1;color:#000000;fill:#ffb13b;fill-opacity:1;fill-rule:nonzero;stroke:#ff9015;stroke-width:2.5;stroke-linecap:square;stroke-linejoin:miter;marker:none;marker-start:none;marker-mid:none;marker-end:none;stroke-miterlimit:4;stroke-dasharray:none;stroke-dashoffset:0;stroke-opacity:1;visibility:visible;display:inline;overflow:visible;enable-background:accumulate"
       id="rect4107"
       width="147.14285"
       height="80.000008"
       x="28.711826"
       y="444.87967"
       rx="18.571428"
       ry="17.142859" />
    <rect
       style="opacity:1;color:#000000;fill:#ffb13b;fill-opacity:1;fill-rule:nonzero;stroke:#ff9015;stroke-width:2.5;stroke-linecap:square;stroke-linejoin:miter;marker:none;marker-start:none;marker-mid:none;marker-end:none;stroke-miterlimit:4;stroke-dasharray:none;stroke-dashoffset:0;stroke-opacity:1;visibility:visible;display:inline;overflow:visible;enable-background:accumulate"
       id="rect4109"
       width="147.14285"
       height="80.000008"
       x="543.04773"
       y="323.2843"
       rx="18.571428"
       ry="17.142859" />
    <rect
       style="opacity:1;color:#000000;fill:#ffb13b;fill-opacity:1;fill-rule:nonzero;stroke:#ff9015;stroke-width:2.5;stroke-linecap:square;stroke-linejoin:miter;marker:none;marker-start:none;marker-mid:none;marker-end:none;stroke-miterlimit:4;stroke-dasharray:none;stroke-dashoffset:0;stroke-opacity:1;visibility:visible;display:inline;overflow:visible;enable-background:accumulate"
       id="rect4111"
       width="147.14285"
       height="80.000008"
       x="233.14742"
       y="444.87967"
       rx="18.571428"
       ry="17.142859" />
    <path
       style="opacity:1;color:#000000;fill:#ffb13b;fill-opacity:1;fill-rule:nonzero;stroke:#ff9015;stroke-width:2.5;stroke-linecap:square;stroke-linejoin:miter;marker:none;marker-start:none;marker-mid:none;marker-end:none;stroke-miterlimit:4;stroke-dasharray:none;stroke-dashoffset:0;stroke-opacity:1;visibility:visible;display:inline;overflow:visible;enable-background:accumulate"
       d="M 251.70991,201.83046 C 241.42134,201.83046 233.14741,209.45832 233.14741,218.95546 L 233.14741,264.67421 C 233.14741,274.17135 241.42133,281.83047 251.70991,281.83046 L 361.70991,281.83046 C 371.47056,281.83046 379.45044,274.92682 380.24116,266.11171 C 394.12944,265.77921 405.30366,255.02684 405.30366,241.83046 C 405.30366,228.63409 394.12945,217.85046 380.24116,217.51796 C 379.45044,208.70285 371.47057,201.83046 361.70991,201.83046 L 251.70991,201.83046 z "
       id="rect4113" />
    <path
       sodipodi:type="star"
       style="opacity:1;color:#000000;fill:#ffb13b;fill-opacity:1;fill-rule:nonzero;stroke:#ff9015;stroke-width:5.26808691;stroke-linecap:square;stroke-linejoin:miter;marker:none;marker-start:none;marker-mid:none;marker-end:none;stroke-miterlimit:4;stroke-dasharray:none;stroke-dashoffset:0;stroke-opacity:1;visibility:visible;display:inline;overflow:visible;enable-background:accumulate"
       id="path6063"
       sodipodi:sides="4"
       sodipodi:cx="-568.8045"
       sodipodi:cy="512.47998"
       sodipodi:r1="114.34498"
       sodipodi:r2="80.854111"
       sodipodi:arg1="1.5467046"
       sodipodi:arg2="2.3321028"
       inkscape:flatsided="true"
       inkscape:rounded="0.12"
       inkscape:randomized="0"
       d="M -566.05,626.79178 C -585.44936,627.25923 -682.64885,534.63384 -683.1163,515.23448 C -683.58376,495.83513 -590.95836,398.63564 -571.55901,398.16818 C -552.15965,397.70073 -454.96016,490.32612 -454.49271,509.72548 C -454.02525,529.12483 -546.65065,626.32432 -566.05,626.79178 z "
       transform="matrix(0.6435938,0,0,0.3499147,672.79796,427.08003)" />
    <path
       sodipodi:type="star"
       style="opacity:1;color:#000000;fill:#ffb13b;fill-opacity:1;fill-rule:nonzero;stroke:#ff9015;stroke-width:5.26808691;stroke-linecap:square;stroke-linejoin:miter;marker:none;marker-start:none;marker-mid:none;marker-end:none;stroke-miterlimit:4;stroke-dasharray:none;stroke-dashoffset:0;stroke-opacity:1;visibility:visible;display:inline;overflow:visible;enable-background:accumulate"
       id="path6065"
       sodipodi:sides="4"
       sodipodi:cx="-568.8045"
       sodipodi:cy="512.47998"
       sodipodi:r1="114.34498"
       sodipodi:r2="80.854111"
       sodipodi:arg1="1.5467046"
       sodipodi:arg2="2.3321028"
       inkscape:flatsided="true"
       inkscape:rounded="0.12"
       inkscape:randomized="0"
       d="M -566.05,626.79178 C -585.44936,627.25923 -682.64885,534.63384 -683.1163,515.23448 C -683.58376,495.83513 -590.95836,398.63564 -571.55901,398.16818 C -552.15965,397.70073 -454.96016,490.32612 -454.49271,509.72548 C -454.02525,529.12483 -546.65065,626.32432 -566.05,626.79178 z "
       transform="matrix(0.6435938,0,0,0.3499147,982.69814,427.08644)" />
    <path
       sodipodi:type="star"
       style="opacity:1;color:#000000;fill:#ffb13b;fill-opacity:1;fill-rule:nonzero;stroke:#ff9015;stroke-width:6.37171316;stroke-linecap:square;stroke-linejoin:miter;marker:none;marker-start:none;marker-mid:none;marker-end:none;stroke-miterlimit:4;stroke-dasharray:none;stroke-dashoffset:0;stroke-opacity:1;visibility:visible;display:inline;overflow:visible;enable-background:accumulate"
       id="path6067"
       sodipodi:sides="50"
       sodipodi:cx="-603.23578"
       sodipodi:cy="534.51593"
       sodipodi:r1="138.32973"
       sodipodi:r2="124.08177"
       sodipodi:arg1="0.22082877"
       sodipodi:arg2="0.28366062"
       inkscape:flatsided="false"
       inkscape:rounded="0"
       inkscape:randomized="0"
       d="M -468.26522,564.81544 L -484.11264,569.24292 L -473.12704,581.49282 L -489.40441,583.89918 L -480.04075,597.42934 L -496.49137,597.77663 L -488.89732,612.37368 L -505.26175,610.65643 L -499.55708,626.09016 L -515.57723,622.33544 L -511.85191,638.36246 L -527.27515,632.62948 L -525.58792,648.99703 L -540.17101,641.37622 L -540.54848,657.82617 L -554.06144,648.4377 L -556.49766,664.71064 L -568.72738,653.70258 L -573.18393,669.54185 L -583.93754,657.0878 L -590.34413,672.24363 L -599.45204,658.54 L -607.70764,672.77336 L -615.02621,658.03626 L -625.00063,671.12268 L -630.41444,655.58453 L -641.95038,667.31764 L -645.37405,651.22348 L -658.28957,661.41823 L -659.66911,645.02188 L -673.76053,653.5175 L -673.07419,637.07753 L -688.11927,643.74004 L -685.37787,627.51573 L -701.13935,632.24005 L -696.38612,616.48727 L -712.61543,619.1989 L -705.92533,604.16607 L -722.36653,604.82224 L -713.84507,590.74644 L -730.23887,589.33681 L -720.02044,576.44002 L -736.10829,572.98683 L -724.35404,561.47244 L -739.88223,556.03013 L -726.77753,546.07974 L -741.50118,538.73415 L -727.2527,530.50467 L -740.93959,521.37163 L -725.77204,514.99286 L -738.20634,504.21642 L -722.35892,499.78894 L -733.34452,487.53904 L -717.06715,485.13268 L -726.43081,471.60252 L -709.98019,471.25523 L -717.57424,456.65818 L -701.20981,458.37544 L -706.91448,442.9417 L -690.89432,446.69642 L -694.61965,430.6694 L -679.19641,436.40238 L -680.88364,420.03483 L -666.30055,427.65564 L -665.92308,411.20569 L -652.41012,420.59416 L -649.9739,404.32122 L -637.74418,415.32928 L -633.28763,399.49001 L -622.53402,411.94406 L -616.12743,396.78823 L -607.01952,410.49186 L -598.76391,396.2585 L -591.44534,410.9956 L -581.47093,397.90918 L -576.05711,413.44733 L -564.52118,401.71422 L -561.09751,417.80838 L -548.18199,407.61363 L -546.80244,424.00998 L -532.71103,415.51436 L -533.39737,431.95433 L -518.35229,425.29182 L -521.09369,441.51613 L -505.33221,436.79181 L -510.08544,452.54459 L -493.85613,449.83296 L -500.54622,464.86579 L -484.10503,464.20962 L -492.62648,478.28542 L -476.23269,479.69505 L -486.45112,492.59184 L -470.36327,496.04503 L -482.11752,507.55942 L -466.58933,513.00173 L -479.69403,522.95212 L -464.97038,530.29772 L -479.21886,538.52719 L -465.53196,547.66023 L -480.69952,554.039 L -468.26522,564.81544 z "
       transform="matrix(0.5321035,0,0,0.2893154,788.80949,603.67972)" />
    <path
       style="opacity:1;color:#000000;fill:#ffb13b;fill-opacity:1;fill-rule:nonzero;stroke:#ff9015;stroke-width:2.5;stroke-linecap:square;stroke-linejoin:miter;marker:none;marker-start:none;marker-mid:none;marker-end:none;stroke-miterlimit:4;stroke-dasharray:none;stroke-dashoffset:0;stroke-opacity:1;visibility:visible;display:inline;overflow:visible;enable-background:accumulate"
       d="M 559.62808,201.7211 C 549.85827,201.7211 541.90607,208.61284 541.12808,217.43985 C 541.24382,217.4384 541.35572,217.43985 541.47183,217.43985 C 555.66612,217.43985 567.19058,228.31539 567.19058,241.7211 C 567.19058,255.12682 555.66612,266.00235 541.47183,266.00235 C 541.35572,266.00235 541.24382,266.0038 541.12808,266.00235 C 541.903,274.83223 549.85605,281.72111 559.62808,281.7211 L 669.62808,281.7211 C 679.91665,281.7211 688.19058,274.09325 688.19058,264.5961 L 688.19058,218.87735 C 688.19058,209.38021 679.91666,201.7211 669.62808,201.7211 L 559.62808,201.7211 z "
       id="rect8609" />
    <path
       style="fill:#664444;fill-opacity:1;fill-rule:evenodd;stroke:#664444;stroke-width:1px;stroke-linecap:butt;stroke-linejoin:miter;stroke-opacity:1"
       d="M -177.48985,257.00823 L -161.1503,249.97839 L -161.16898,264.82118 L -177.48985,257.00823 z "
       id="path5112" />
    <path
       style="fill:#664444;fill-opacity:1;fill-rule:evenodd;stroke:#664444;stroke-width:1px;stroke-linecap:butt;stroke-linejoin:miter;stroke-opacity:1"
       d="M -88.620188,245.50551 L -104.95974,252.53535 L -104.94106,237.69256 L -88.620188,245.50551 z "
       id="path6083" />
    <path
       style="fill:#664444;fill-opacity:1;fill-rule:evenodd;stroke:#664444;stroke-width:1px;stroke-linecap:butt;stroke-linejoin:miter;stroke-opacity:1"
       d="M -149.06892,176.45047 L -156.09876,160.11092 L -141.25597,160.1296 L -149.06892,176.45047 z "
       id="path6085" />
    <path
       style="fill:#664444;fill-opacity:1;fill-rule:evenodd;stroke:#664444;stroke-width:0.99999994px;stroke-linecap:butt;stroke-linejoin:miter;stroke-opacity:1"
       d="M 306.46009,199.40499 L 299.57074,183.06544 L 314.1169,183.08412 L 306.46009,199.40499 z "
       id="path6087" />
    <g
       id="g36470">
      <g
         id="g36466">
        <path
           style="fill:none;fill-rule:evenodd;stroke:#664444;stroke-width:0.99999994px;stroke-linecap:butt;stroke-linejoin:miter;stroke-opacity:1"
           d="M 465.71144,129.56455 L 465.39465,167.65182"
           id="path2178"
           sodipodi:nodetypes="cc" />
        <path
           style="fill:none;fill-rule:evenodd;stroke:#664444;stroke-width:0.99999994px;stroke-linecap:butt;stroke-linejoin:miter;stroke-opacity:1"
           d="M 306.298,190.29172 L 306.298,167.22049 L 616.04741,168.10785 L 616.04741,195.61586"
           id="path2176" />
      </g>
      <path
         id="path6089"
         d="M 615.43424,199.392 L 608.54489,183.05245 L 623.09105,183.07113 L 615.43424,199.392 z "
         style="fill:#664444;fill-opacity:1;fill-rule:evenodd;stroke:#664444;stroke-width:0.99999994px;stroke-linecap:butt;stroke-linejoin:miter;stroke-opacity:1" />
    </g>
    <g
       id="g36462">
      <path
         id="path5090"
         d="M 305.11367,283.45058 L 305.11367,317.81351"
         style="fill:none;fill-rule:evenodd;stroke:#664444;stroke-width:1px;stroke-linecap:butt;stroke-linejoin:miter;stroke-opacity:1" />
      <path
         id="path6091"
         d="M 304.74498,321.08034 L 297.71514,304.74079 L 312.55793,304.75947 L 304.74498,321.08034 z "
         style="fill:#664444;fill-opacity:1;fill-rule:evenodd;stroke:#664444;stroke-width:1px;stroke-linecap:butt;stroke-linejoin:miter;stroke-opacity:1" />
    </g>
    <g
       id="g35481">
      <path
         sodipodi:nodetypes="ccc"
         id="path5102"
         d="M 231.44552,360.37967 L 101.90386,360.37177 L 101.90386,442.12393"
         style="fill:none;fill-rule:evenodd;stroke:#664444;stroke-width:1px;stroke-linecap:butt;stroke-linejoin:miter;stroke-opacity:1" />
      <path
         id="path6093"
         d="M 101.56677,442.23285 L 94.536926,425.8933 L 109.37972,425.91198 L 101.56677,442.23285 z "
         style="fill:#664444;fill-opacity:1;fill-rule:evenodd;stroke:#664444;stroke-width:1px;stroke-linecap:butt;stroke-linejoin:miter;stroke-opacity:1" />
    </g>
    <g
       id="g36458">
      <path
         id="path5092"
         d="M 304.97187,405.761 L 304.97187,438.939"
         style="fill:none;fill-rule:evenodd;stroke:#664444;stroke-width:1px;stroke-linecap:butt;stroke-linejoin:miter;stroke-opacity:1" />
      <path
         id="path6095"
         d="M 304.95451,442.87665 L 297.92467,426.5371 L 312.76746,426.55578 L 304.95451,442.87665 z "
         style="fill:#664444;fill-opacity:1;fill-rule:evenodd;stroke:#664444;stroke-width:1px;stroke-linecap:butt;stroke-linejoin:miter;stroke-opacity:1" />
    </g>
    <g
       id="g35477">
      <path
         sodipodi:nodetypes="cc"
         id="path5100"
         d="M 305.31925,558.66301 L 304.919,526.26968"
         style="fill:none;fill-rule:evenodd;stroke:#664444;stroke-width:1px;stroke-linecap:butt;stroke-linejoin:miter;stroke-opacity:1" />
      <path
         id="path6097"
         d="M 305.159,563.61031 L 298.12916,547.27076 L 312.97195,547.28944 L 305.159,563.61031 z "
         style="fill:#664444;fill-opacity:1;fill-rule:evenodd;stroke:#664444;stroke-width:1px;stroke-linecap:butt;stroke-linejoin:miter;stroke-opacity:1" />
    </g>
    <g
       id="g32548">
      <path
         id="path5094"
         d="M 616.58688,405.33207 L 616.58688,429.6898"
         style="fill:none;fill-rule:evenodd;stroke:#664444;stroke-width:1px;stroke-linecap:butt;stroke-linejoin:miter;stroke-opacity:1" />
      <path
         id="path6099"
         d="M 616.73054,442.15621 L 609.7007,423.00216 L 624.54349,423.02406 L 616.73054,442.15621 z "
         style="fill:#664444;fill-opacity:1;fill-rule:evenodd;stroke:#664444;stroke-width:1px;stroke-linecap:butt;stroke-linejoin:miter;stroke-opacity:1" />
    </g>
    <path
       style="fill:none;fill-rule:evenodd;stroke:#664444;stroke-width:1px;stroke-linecap:butt;stroke-linejoin:miter;stroke-opacity:1"
       d="M 615.71768,282.99149 L 615.71768,318.53935"
       id="path5096"
       sodipodi:nodetypes="cc" />
    <path
       style="fill:#664444;fill-opacity:1;fill-rule:evenodd;stroke:#664444;stroke-width:1px;stroke-linecap:butt;stroke-linejoin:miter;stroke-opacity:1"
       d="M 615.61508,321.09542 L 608.58524,304.75587 L 623.42803,304.77455 L 615.61508,321.09542 z "
       id="path6101" />
    <g
       id="g33523">
      <path
         id="path5098"
         d="M 614.97796,562.44101 L 614.97796,526.32537"
         style="fill:none;fill-rule:evenodd;stroke:#664444;stroke-width:0.99999994px;stroke-linecap:butt;stroke-linejoin:miter;stroke-opacity:1" />
      <path
         id="path6103"
         d="M 615.05926,564.37548 L 608.02942,550.14645 L 622.87221,550.16272 L 615.05926,564.37548 z "
         style="fill:#664444;fill-opacity:1;fill-rule:evenodd;stroke:#664444;stroke-width:0.99999994px;stroke-linecap:butt;stroke-linejoin:miter;stroke-opacity:1" />
    </g>
    <g
       id="g35485">
      <path
         sodipodi:nodetypes="cccc"
         id="path5104"
         d="M 387.36557,364.8894 L 469.23174,364.56615 L 469.12465,484.5642 L 381.65411,484.24194"
         style="fill:none;fill-rule:evenodd;stroke:#664444;stroke-width:1px;stroke-linecap:butt;stroke-linejoin:miter;stroke-opacity:1" />
      <path
         id="path6105"
         d="M 381.98357,364.14797 L 398.32312,357.11813 L 398.30444,371.96092 L 381.98357,364.14797 z "
         style="fill:#664444;fill-opacity:1;fill-rule:evenodd;stroke:#664444;stroke-width:1px;stroke-linecap:butt;stroke-linejoin:miter;stroke-opacity:1" />
    </g>
    <g
       id="g31573">
      <path
         sodipodi:nodetypes="cccc"
         id="path5106"
         d="M 691.61389,606.13847 L 731.10097,605.7627 L 731.10097,361.37729 L 697.09083,362.152"
         style="fill:none;fill-rule:evenodd;stroke:#664444;stroke-width:0.99999994px;stroke-linecap:butt;stroke-linejoin:miter;stroke-opacity:1" />
      <path
         id="path6107"
         d="M 692.27617,361.29934 L 708.61572,354.42793 L 708.59704,368.93622 L 692.27617,361.29934 z "
         style="fill:#664444;fill-opacity:1;fill-rule:evenodd;stroke:#664444;stroke-width:0.99999994px;stroke-linecap:butt;stroke-linejoin:miter;stroke-opacity:1" />
    </g>
    <g
       id="g34498">
      <path
         sodipodi:nodetypes="ccc"
         id="path5110"
         d="M 617.7263,648.24666 L 617.41362,757.97777 L 553.57541,757.97777"
         style="fill:none;fill-rule:evenodd;stroke:#664444;stroke-width:1px;stroke-linecap:butt;stroke-linejoin:miter;stroke-opacity:1" />
      <path
         id="path6109"
         d="M 546.95272,757.69799 L 563.29227,750.32698 L 563.27359,765.89011 L 546.95272,757.69799 z "
         style="fill:#664444;fill-opacity:1;fill-rule:evenodd;stroke:#664444;stroke-width:1px;stroke-linecap:butt;stroke-linejoin:miter;stroke-opacity:1" />
    </g>
    <g
       id="g35473">
      <path
         sodipodi:nodetypes="ccc"
         id="path5108"
         d="M 308.45993,647.85723 L 308.45993,757.62764 L 380.83952,757.69343"
         style="fill:none;fill-rule:evenodd;stroke:#664444;stroke-width:1px;stroke-linecap:butt;stroke-linejoin:miter;stroke-opacity:1" />
      <path
         id="path6111"
         d="M 388.97014,757.90048 L 372.63059,764.93032 L 372.64927,750.08753 L 388.97014,757.90048 z "
         style="fill:#664444;fill-opacity:1;fill-rule:evenodd;stroke:#664444;stroke-width:1px;stroke-linecap:butt;stroke-linejoin:miter;stroke-opacity:1" />
    </g>
    <text
       xml:space="preserve"
       style="font-size:20px;font-style:normal;font-weight:normal;text-align:center;text-anchor:middle;fill:#664444;fill-opacity:1;stroke:none;stroke-width:1px;stroke-linecap:butt;stroke-linejoin:miter;stroke-opacity:1;font-family:Arial"
       x="463.00378"
       y="94.493973"
       id="text6189"><tspan
         sodipodi:role="line"
         x="463.00378"
         y="94.493973"
         id="tspan15911">Treat</tspan></text>
    <path
       style="fill:none;fill-rule:evenodd;stroke:#664444;stroke-width:0.99999994;stroke-linecap:butt;stroke-linejoin:miter;stroke-opacity:1;stroke-miterlimit:4;stroke-dasharray:0.99999994,2.99999982;stroke-dashoffset:0"
       d="M 406.52869,242.8457 L 567.39182,242.83472"
       id="path14916"
       sodipodi:nodetypes="cc" />
    <text
       xml:space="preserve"
       style="font-size:20;font-style:normal;font-weight:normal;text-align:center;text-anchor:middle;fill:#664444;fill-opacity:1;stroke:none;stroke-width:1px;stroke-linecap:butt;stroke-linejoin:miter;stroke-opacity:1;font-family:Bitstream Vera Sans"
       x="302.94879"
       y="233.81784"
       id="text15913"><tspan
         sodipodi:role="line"
         id="tspan15915"
         x="302.94879"
         y="233.81784">Snow</tspan><tspan
         sodipodi:role="line"
         x="302.94879"
         y="258.81784"
         id="tspan15917">Cone</tspan></text>
    <text
       xml:space="preserve"
       style="font-size:20px;font-style:normal;font-weight:normal;text-align:center;text-anchor:middle;fill:#664444;fill-opacity:1;stroke:none;stroke-width:1px;stroke-linecap:butt;stroke-linejoin:miter;stroke-opacity:1;font-family:Bitstream Vera Sans"
       x="624.17004"
       y="248.308"
       id="text17913"><tspan
         sodipodi:role="line"
         x="624.17004"
         y="248.308"
         id="tspan17917">Gumball</tspan></text>
    <text
       xml:space="preserve"
       style="font-size:20px;font-style:normal;font-weight:normal;text-align:center;text-anchor:middle;fill:#664444;fill-opacity:1;stroke:none;stroke-width:1px;stroke-linecap:butt;stroke-linejoin:miter;stroke-opacity:1;font-family:Bitstream Vera Sans"
       x="618.22809"
       y="367.68173"
       id="text17919"><tspan
         sodipodi:role="line"
         x="618.22809"
         y="367.68173"
         id="tspan17923">Teeth</tspan></text>
    <text
       xml:space="preserve"
       style="font-size:20px;font-style:normal;font-weight:normal;text-align:center;text-anchor:middle;fill:#664444;fill-opacity:1;stroke:none;stroke-width:1px;stroke-linecap:butt;stroke-linejoin:miter;stroke-opacity:1;font-family:Bitstream Vera Sans"
       x="618.28607"
       y="489.22949"
       id="text17925"><tspan
         sodipodi:role="line"
         x="618.28607"
         y="489.22949"
         id="tspan17929">Water</tspan></text>
    <text
       xml:space="preserve"
       style="font-size:20px;font-style:normal;font-weight:normal;text-align:center;text-anchor:middle;fill:#664444;fill-opacity:1;stroke:none;stroke-width:1px;stroke-linecap:butt;stroke-linejoin:miter;stroke-opacity:1;font-family:Bitstream Vera Sans"
       x="616.22809"
       y="612.19708"
       id="text17931"><tspan
         sodipodi:role="line"
         x="616.22809"
         y="612.19708"
         id="tspan17935">Chew</tspan></text>
    <text
       xml:space="preserve"
       style="font-size:20px;font-style:normal;font-weight:normal;text-align:center;text-anchor:middle;fill:#664444;fill-opacity:1;stroke:none;stroke-width:1px;stroke-linecap:butt;stroke-linejoin:miter;stroke-opacity:1;font-family:Bitstream Vera Sans"
       x="469.08643"
       y="765.49744"
       id="text17937"><tspan
         sodipodi:role="line"
         x="469.08643"
         y="765.49744"
         id="tspan17941">Excellent</tspan></text>
    <text
       xml:space="preserve"
       style="font-size:20px;font-style:normal;font-weight:normal;text-align:center;text-anchor:middle;fill:#664444;fill-opacity:1;stroke:none;stroke-width:1px;stroke-linecap:butt;stroke-linejoin:miter;stroke-opacity:1;font-family:Bitstream Vera Sans"
       x="303.58472"
       y="612.25507"
       id="text17943"><tspan
         sodipodi:role="line"
         x="303.58472"
         y="612.25507"
         id="tspan17947">Lick</tspan></text>
    <text
       xml:space="preserve"
       style="font-size:20px;font-style:normal;font-weight:normal;text-align:center;text-anchor:middle;fill:#664444;fill-opacity:1;stroke:none;stroke-width:1px;stroke-linecap:butt;stroke-linejoin:miter;stroke-opacity:1;font-family:Bitstream Vera Sans"
       x="304.59839"
       y="490.31653"
       id="text17949"><tspan
         sodipodi:role="line"
         x="304.59839"
         y="490.31653"
         id="tspan17953">Water</tspan></text>
    <text
       xml:space="preserve"
       style="font-size:20px;font-style:normal;font-weight:normal;text-align:center;text-anchor:middle;fill:#664444;fill-opacity:1;stroke:none;stroke-width:1px;stroke-linecap:butt;stroke-linejoin:miter;stroke-opacity:1;font-family:Bitstream Vera Sans"
       x="301.91751"
       y="366.36261"
       id="text17955"><tspan
         sodipodi:role="line"
         x="301.91751"
         y="366.36261"
         id="tspan17959">Hot Day</tspan></text>
    <text
       xml:space="preserve"
       style="font-size:20px;font-style:normal;font-weight:normal;text-align:center;text-anchor:middle;fill:#664444;fill-opacity:1;stroke:none;stroke-width:1px;stroke-linecap:butt;stroke-linejoin:miter;stroke-opacity:1;font-family:Bitstream Vera Sans"
       x="100.98064"
       y="490.02643"
       id="text17961"><tspan
         sodipodi:role="line"
         x="100.98064"
         y="490.02643"
         id="tspan17965">Ground</tspan></text>
    <g
       id="g38457">
      <rect
         ry="0"
         rx="18.571428"
         y="154.19667"
         x="348.64334"
         height="24.274742"
         width="66.998299"
         id="rect36476"
         style="color:#000000;fill:#ffffff;fill-opacity:1;fill-rule:nonzero;stroke:#ffffff;stroke-width:0.99999988;stroke-linecap:square;stroke-linejoin:miter;marker:none;marker-start:none;marker-mid:none;marker-end:none;stroke-miterlimit:4;stroke-dasharray:0.9999999, 2.9999997;stroke-dashoffset:0;stroke-opacity:1;visibility:visible;display:inline;overflow:visible;enable-background:accumulate" />
      <text
         id="text37447"
         y="173.25168"
         x="382.39359"
         style="font-size:20px;font-style:normal;font-weight:normal;text-align:center;text-anchor:middle;fill:#664444;fill-opacity:1;stroke:none;stroke-width:1px;stroke-linecap:butt;stroke-linejoin:miter;stroke-opacity:1;font-family:Bitstream Vera Sans"
         xml:space="preserve"><tspan
           id="tspan37451"
           y="173.25168"
           x="382.39359"
           sodipodi:role="line">Short</tspan></text>
    </g>
    <g
       id="g38445"
       transform="translate(353.61433,53.404436)">
      <rect
         ry="0"
         rx="18.571428"
         y="101.27773"
         x="150.01791"
         height="24.274742"
         width="66.998299"
         id="rect38436"
         style="opacity:1;color:#000000;fill:#ffffff;fill-opacity:1;fill-rule:nonzero;stroke:#ffffff;stroke-width:0.99999988;stroke-linecap:square;stroke-linejoin:miter;marker:none;marker-start:none;marker-mid:none;marker-end:none;stroke-miterlimit:4;stroke-dasharray:0.9999999, 2.9999997;stroke-dashoffset:0;stroke-opacity:1;visibility:visible;display:inline;overflow:visible;enable-background:accumulate" />
      <text
         id="text37455"
         y="119.90017"
         x="185.04401"
         style="font-size:20px;font-style:normal;font-weight:normal;text-align:center;text-anchor:middle;fill:#664444;fill-opacity:1;stroke:none;stroke-width:1px;stroke-linecap:butt;stroke-linejoin:miter;stroke-opacity:1;font-family:Bitstream Vera Sans"
         xml:space="preserve"><tspan
           id="tspan37457"
           y="119.90017"
           x="185.04401"
           sodipodi:role="line">Long</tspan></text>
    </g>
    <g
       id="g38481"
       transform="translate(20.390785,-52.433446)">
      <rect
         ry="0"
         rx="18.571426"
         y="646.00299"
         x="676.29437"
         height="24.274742"
         width="27.187723"
         id="rect38443"
         style="color:#000000;fill:#ffffff;fill-opacity:1;fill-rule:nonzero;stroke:#ffffff;stroke-width:0.99999988;stroke-linecap:square;stroke-linejoin:miter;marker:none;marker-start:none;marker-mid:none;marker-end:none;stroke-miterlimit:4;stroke-dasharray:0.9999999, 2.99999971;stroke-dashoffset:0;stroke-opacity:1;visibility:visible;display:inline;overflow:visible;enable-background:accumulate" />
      <text
         id="text38453"
         y="664.62543"
         x="689.95868"
         style="font-size:20px;font-style:normal;font-weight:normal;text-align:center;text-anchor:middle;fill:#664444;fill-opacity:1;stroke:none;stroke-width:1px;stroke-linecap:butt;stroke-linejoin:miter;stroke-opacity:1;font-family:Bitstream Vera Sans"
         xml:space="preserve"><tspan
           id="tspan38455"
           y="664.62543"
           x="689.95868"
           sodipodi:role="line">No</tspan></text>
    </g>
    <g
       id="g38468"
       transform="translate(399.07678,595.33275)">
      <rect
         ry="0"
         rx="18.571428"
         y="150.74019"
         x="168.29266"
         height="24.274742"
         width="45.636524"
         id="rect38466"
         style="opacity:1;color:#000000;fill:#ffffff;fill-opacity:1;fill-rule:nonzero;stroke:#ffffff;stroke-width:0.99999982;stroke-linecap:square;stroke-linejoin:miter;marker:none;marker-start:none;marker-mid:none;marker-end:none;stroke-miterlimit:4;stroke-dasharray:0.9999999, 2.9999997;stroke-dashoffset:0;stroke-opacity:1;visibility:visible;display:inline;overflow:visible;enable-background:accumulate" />
      <text
         id="text38462"
         y="170.08401"
         x="191.81651"
         style="font-size:20px;font-style:normal;font-weight:normal;text-align:center;text-anchor:middle;fill:#664444;fill-opacity:1;stroke:none;stroke-width:1px;stroke-linecap:butt;stroke-linejoin:miter;stroke-opacity:1;font-family:Bitstream Vera Sans"
         xml:space="preserve"><tspan
           id="tspan38464"
           y="170.08401"
           x="191.81651"
           sodipodi:role="line">Yes</tspan></text>
    </g>
    <g
       id="g38497"
       transform="matrix(0,-1,1,0,302.11049,503.69497)">
      <rect
         ry="0"
         rx="18.571428"
         y="154.68217"
         x="46.063992"
         height="24.274742"
         width="66.998299"
         id="rect38488"
         style="color:#000000;fill:#ffffff;fill-opacity:1;fill-rule:nonzero;stroke:#ffffff;stroke-width:0.99999988;stroke-linecap:square;stroke-linejoin:miter;marker:none;marker-start:none;marker-mid:none;marker-end:none;stroke-miterlimit:4;stroke-dasharray:0.9999999, 2.9999997;stroke-dashoffset:0;stroke-opacity:1;visibility:visible;display:inline;overflow:visible;enable-background:accumulate" />
      <text
         id="text38490"
         y="173.73717"
         x="79.872253"
         style="font-size:20px;font-style:normal;font-weight:normal;text-align:center;text-anchor:middle;fill:#664444;fill-opacity:1;stroke:none;stroke-width:1px;stroke-linecap:butt;stroke-linejoin:miter;stroke-opacity:1;font-family:Bitstream Vera Sans"
         xml:space="preserve"><tspan
           id="tspan38492"
           y="173.73717"
           x="79.872253"
           sodipodi:role="line">Drink</tspan></text>
    </g>
    <g
       id="g38513"
       transform="translate(71.853241,204.93686)">
      <rect
         ry="0"
         rx="18.571428"
         y="142.0593"
         x="63.599819"
         height="24.274742"
         width="66.998299"
         id="rect38504"
         style="color:#000000;fill:#ffffff;fill-opacity:1;fill-rule:nonzero;stroke:#ffffff;stroke-width:0.99999988;stroke-linecap:square;stroke-linejoin:miter;marker:none;marker-start:none;marker-mid:none;marker-end:none;stroke-miterlimit:4;stroke-dasharray:0.9999999, 2.9999997;stroke-dashoffset:0;stroke-opacity:1;visibility:visible;display:inline;overflow:visible;enable-background:accumulate" />
      <text
         id="text38506"
         y="161.1143"
         x="97.350067"
         style="font-size:20px;font-style:normal;font-weight:normal;text-align:center;text-anchor:middle;fill:#664444;fill-opacity:1;stroke:none;stroke-width:1px;stroke-linecap:butt;stroke-linejoin:miter;stroke-opacity:1;font-family:Bitstream Vera Sans"
         xml:space="preserve"><tspan
           id="tspan38508"
           y="161.1143"
           x="97.350067"
           sodipodi:role="line">Drop</tspan></text>
    </g>
    <rect
       style="opacity:1;color:#000000;fill:#000000;fill-opacity:1;fill-rule:nonzero;stroke:#000000;stroke-width:2.5;stroke-linecap:square;stroke-linejoin:miter;marker:none;marker-start:none;marker-mid:none;marker-end:none;stroke-miterlimit:4;stroke-dasharray:none;stroke-dashoffset:0;stroke-opacity:1;visibility:visible;display:inline;overflow:visible;filter:url(#filter12524);enable-background:accumulate"
       id="rect12537"
       width="147.14285"
       height="80.000008"
       x="-410.50485"
       y="-12.031993"
       rx="18.571428"
       ry="17.142859" />
  </g>
</svg>
